<svg width="44" height="44" viewBox="0 0 44 44" fill="none" xmlns="http://www.w3.org/2000/svg">
<g filter="url(#filter0_d_1539_9772)">
<rect x="4" y="3" width="36" height="36" rx="18" fill="white" shape-rendering="crispEdges"/>
<path fill-rule="evenodd" clip-rule="evenodd" d="M17.8337 29.9584C14.1587 29.9584 13.042 28.8417 13.042 25.1667V16.8334C13.042 13.1584 14.1587 12.0417 17.8337 12.0417H19.0837C20.542 12.0417 21.0003 12.5167 21.5837 13.2917L22.8337 14.9584C23.1087 15.3251 23.1503 15.3751 23.667 15.3751H26.167C29.842 15.3751 30.9587 16.4917 30.9587 20.1667V25.1667C30.9587 28.8417 29.842 29.9584 26.167 29.9584H17.8337ZM14.292 16.8334V25.1667C14.292 28.1417 14.8587 28.7084 17.8337 28.7084H26.167C29.142 28.7084 29.7087 28.1417 29.7087 25.1667V20.1667C29.7087 17.1917 29.142 16.6251 26.167 16.6251H23.667C22.6003 16.6251 22.2503 16.2584 21.8337 15.7084L20.5837 14.0417C20.1503 13.4667 20.0253 13.2917 19.0837 13.2917H17.8337C14.8587 13.2917 14.292 13.8584 14.292 16.8334Z" fill="#1A9DF5"/>
</g>
<defs>
<filter id="filter0_d_1539_9772" x="0" y="0" width="44" height="44" filterUnits="userSpaceOnUse" color-interpolation-filters="sRGB">
<feFlood flood-opacity="0" result="BackgroundImageFix"/>
<feColorMatrix in="SourceAlpha" type="matrix" values="0 0 0 0 0 0 0 0 0 0 0 0 0 0 0 0 0 0 127 0" result="hardAlpha"/>
<feOffset dy="1"/>
<feGaussianBlur stdDeviation="2"/>
<feComposite in2="hardAlpha" operator="out"/>
<feColorMatrix type="matrix" values="0 0 0 0 0 0 0 0 0 0 0 0 0 0 0 0 0 0 0.1 0"/>
<feBlend mode="normal" in2="BackgroundImageFix" result="effect1_dropShadow_1539_9772"/>
<feBlend mode="normal" in="SourceGraphic" in2="effect1_dropShadow_1539_9772" result="shape"/>
</filter>
</defs>
</svg>
