<svg width="20" height="20" viewBox="0 0 20 20" fill="none" xmlns="http://www.w3.org/2000/svg">
<path d="M2 4C2 1.79086 3.79086 0 6 0H12L18 6V16C18 18.2091 16.2091 20 14 20H6C3.79086 20 2 18.2091 2 16V4Z" fill="#D92D20"/>
<path opacity="0.3" d="M12 0L18 6H16C13.7909 6 12 4.20914 12 2V0Z" fill="white"/>
<path d="M12.5373 12.5973C12.0382 12.5973 11.4137 12.6843 11.2094 12.7149C10.3637 11.8318 10.1231 11.3299 10.069 11.196C10.1423 11.0076 10.3975 10.2918 10.4338 9.37238C10.4517 8.91207 10.3544 8.56812 10.1447 8.35008C9.93533 8.13241 9.68191 8.11548 9.60924 8.11548C9.35443 8.11548 8.92697 8.24433 8.92697 9.10719C8.92697 9.85587 9.27603 10.6503 9.37252 10.8556C8.86415 12.3358 8.31837 13.3491 8.20248 13.5574C6.15974 14.3265 6 15.0702 6 15.2809C6 15.6597 6.26973 15.8858 6.72152 15.8858C7.8192 15.8858 8.8209 14.0429 8.98653 13.7229C9.76614 13.4123 10.8096 13.2199 11.0749 13.174C11.8357 13.8988 12.7157 14.0921 13.0811 14.0921C13.3561 14.0921 14 14.0921 14 13.4301C14 12.8154 13.2121 12.5973 12.5373 12.5973ZM12.4844 13.0319C13.0773 13.0319 13.234 13.2279 13.234 13.3316C13.234 13.3967 13.2093 13.6089 12.8915 13.6089C12.6065 13.6089 12.1145 13.4442 11.6303 13.0869C11.8322 13.0603 12.131 13.0319 12.4844 13.0319ZM9.57812 8.53674C9.63218 8.53674 9.66777 8.55411 9.69711 8.59481C9.86764 8.83143 9.73014 9.60459 9.56279 10.2096C9.40124 9.69083 9.28 8.89481 9.45058 8.61476C9.48392 8.5601 9.52204 8.53674 9.57812 8.53674ZM9.29017 13.1678C9.50483 12.7341 9.74542 12.1021 9.87646 11.7447C10.1387 12.1836 10.4914 12.5912 10.6954 12.8121C10.0603 12.946 9.57969 13.0798 9.29017 13.1678ZM6.4264 15.3388C6.41226 15.322 6.41017 15.2867 6.42083 15.2442C6.44317 15.1553 6.61396 14.7143 7.84924 14.1617C7.67236 14.4404 7.39585 14.8384 7.09208 15.1358C6.87825 15.336 6.71174 15.4375 6.59719 15.4375C6.55621 15.4375 6.49974 15.4263 6.4264 15.3388Z" fill="white"/>
</svg>
