<svg width="44" height="44" viewBox="0 0 44 44" fill="none" xmlns="http://www.w3.org/2000/svg">
<g filter="url(#filter0_d_24_2988)">
<rect x="4" y="3" width="36" height="36" rx="18" fill="white" shape-rendering="crispEdges"/>
<path fill-rule="evenodd" clip-rule="evenodd" d="M23.5832 29.3001C22.5832 28.8751 21.5748 28.2917 20.5915 27.5834C19.6165 26.8667 18.6748 26.0667 17.7832 25.1917C16.8998 24.3001 16.0998 23.3584 15.3915 22.3917C14.6748 21.3917 14.0998 20.3917 13.6915 19.4251C13.2582 18.3917 13.0415 17.3917 13.0415 16.4501C13.0415 15.8001 13.1582 15.1834 13.3832 14.6084C13.6165 14.0167 13.9915 13.4667 14.4998 12.9917C15.1415 12.3584 15.8748 12.0417 16.6582 12.0417C16.9832 12.0417 17.3165 12.1167 17.5998 12.2501C17.9248 12.4001 18.1998 12.6251 18.3998 12.9251L20.3332 15.6501C20.5082 15.8917 20.6415 16.1251 20.7332 16.3584C20.8415 16.6084 20.8998 16.8584 20.8998 17.1001C20.8998 17.4167 20.8082 17.7251 20.6332 18.0167C20.5082 18.2417 20.3165 18.4834 20.0748 18.7251L19.5082 19.3167C19.5165 19.3417 19.5248 19.3584 19.5332 19.3751C19.6332 19.5501 19.8332 19.8501 20.2165 20.3001C20.6248 20.7667 21.0082 21.1917 21.3915 21.5834C21.8832 22.0667 22.2915 22.4501 22.6748 22.7667C23.1498 23.1667 23.4582 23.3667 23.6415 23.4584L23.6248 23.5001L24.2332 22.9001C24.4915 22.6417 24.7415 22.4501 24.9832 22.3251C25.4415 22.0417 26.0248 21.9917 26.6082 22.2334C26.8248 22.3251 27.0582 22.4501 27.3082 22.6251L30.0748 24.5917C30.3832 24.8001 30.6082 25.0667 30.7415 25.3834C30.8665 25.7001 30.9248 25.9917 30.9248 26.2834C30.9248 26.6834 30.8332 27.0834 30.6582 27.4584C30.4832 27.8334 30.2665 28.1584 29.9915 28.4584C29.5165 28.9834 28.9998 29.3584 28.3998 29.6001C27.8248 29.8334 27.1998 29.9584 26.5415 29.9584C25.5998 29.9584 24.6082 29.7334 23.5832 29.3001ZM15.3665 13.8917C14.9832 14.2501 14.7165 14.6417 14.5498 15.0667C14.3748 15.5001 14.2915 15.9584 14.2915 16.4501C14.2915 17.2251 14.4748 18.0667 14.8415 18.9334C15.2165 19.8167 15.7415 20.7334 16.4082 21.6501C17.0748 22.5667 17.8332 23.4584 18.6665 24.3001C19.4998 25.1251 20.3998 25.8917 21.3248 26.5667C22.2248 27.2251 23.1498 27.7584 24.0665 28.1417C25.4915 28.7501 26.8248 28.8917 27.9248 28.4334C28.3498 28.2584 28.7248 27.9917 29.0665 27.6084C29.2582 27.4001 29.4082 27.1751 29.5332 26.9084C29.6332 26.7001 29.6832 26.4834 29.6832 26.2667C29.6832 26.1334 29.6582 26.0001 29.5915 25.8501C29.5665 25.8001 29.5165 25.7084 29.3582 25.6001L26.5915 23.6334C26.4248 23.5167 26.2748 23.4334 26.1332 23.3751C25.9498 23.3001 25.8748 23.2251 25.5915 23.4001C25.4248 23.4834 25.2748 23.6084 25.1082 23.7751L24.4748 24.4001C24.1498 24.7167 23.6498 24.7917 23.2665 24.6501L23.0415 24.5501C22.6998 24.3667 22.2998 24.0834 21.8582 23.7084C21.4582 23.3667 21.0248 22.9667 20.4998 22.4501C20.0915 22.0334 19.6832 21.5917 19.2582 21.1001C18.8665 20.6417 18.5832 20.2501 18.4082 19.9251L18.3082 19.6751C18.2582 19.4834 18.2415 19.3751 18.2415 19.2584C18.2415 18.9584 18.3498 18.6917 18.5582 18.4834L19.1832 17.8334C19.3498 17.6667 19.4748 17.5084 19.5582 17.3667C19.6248 17.2584 19.6498 17.1667 19.6498 17.0834C19.6498 17.0167 19.6248 16.9167 19.5832 16.8167C19.5248 16.6834 19.4332 16.5334 19.3165 16.3751L17.3832 13.6417C17.2998 13.5251 17.1998 13.4417 17.0748 13.3834C16.9415 13.3251 16.7998 13.2917 16.6582 13.2917C16.1998 13.2917 15.7748 13.4917 15.3665 13.8917ZM23.4915 24.0751L23.7165 23.4917C23.6748 23.4834 23.6415 23.4917 23.6248 23.5084L23.4915 24.0751Z" fill="#62B0FD"/>
</g>
<defs>
<filter id="filter0_d_24_2988" x="0" y="0" width="44" height="44" filterUnits="userSpaceOnUse" color-interpolation-filters="sRGB">
<feFlood flood-opacity="0" result="BackgroundImageFix"/>
<feColorMatrix in="SourceAlpha" type="matrix" values="0 0 0 0 0 0 0 0 0 0 0 0 0 0 0 0 0 0 127 0" result="hardAlpha"/>
<feOffset dy="1"/>
<feGaussianBlur stdDeviation="2"/>
<feComposite in2="hardAlpha" operator="out"/>
<feColorMatrix type="matrix" values="0 0 0 0 0 0 0 0 0 0 0 0 0 0 0 0 0 0 0.1 0"/>
<feBlend mode="normal" in2="BackgroundImageFix" result="effect1_dropShadow_24_2988"/>
<feBlend mode="normal" in="SourceGraphic" in2="effect1_dropShadow_24_2988" result="shape"/>
</filter>
</defs>
</svg>
