<svg width="16" height="11" viewBox="0 0 16 11" fill="none" xmlns="http://www.w3.org/2000/svg">
<path d="M12.5526 3.16439C12.1965 2.23257 11.5713 1.43166 10.7589 0.866922C9.94648 0.302225 8.98484 0 8.00013 0C7.01541 0 6.05384 0.302225 5.24134 0.866922C4.429 1.43162 3.80371 2.23254 3.44771 3.16439C2.46372 3.27431 1.55854 3.76277 0.918389 4.52925C0.278157 5.29579 -0.0483675 6.28211 0.00580604 7.2856C0.0599903 8.28897 0.490873 9.23315 1.20971 9.92407C1.92865 10.6149 2.88096 10.9999 3.87086 11H12.1291C13.1191 10.9999 14.0714 10.6149 14.7903 9.92407C15.5091 9.23317 15.94 8.28899 15.9942 7.2856C16.0484 6.28215 15.7218 5.29584 15.0816 4.52925C14.4415 3.76279 13.5366 3.27433 12.5526 3.16439ZM12.1293 9.42808H3.87103C3.0412 9.42808 2.27447 8.97867 1.85955 8.24921C1.44464 7.51976 1.44464 6.62094 1.85955 5.89149C2.27447 5.16204 3.0412 4.71263 3.87103 4.71263H4.61685L4.76656 4.1232C5.01237 3.14346 5.67651 2.32633 6.57742 1.89537C7.47841 1.4643 8.52194 1.4643 9.42287 1.89537C10.3238 2.32644 10.9879 3.14357 11.2337 4.1232L11.3834 4.71263H12.1293C12.9591 4.71263 13.7258 5.16204 14.1407 5.89149C14.5557 6.62094 14.5557 7.51976 14.1407 8.24921C13.7258 8.97867 12.9591 9.42808 12.1293 9.42808Z" fill="#6C757D"/>
</svg>
