<svg width="44" height="44" viewBox="0 0 44 44" fill="none" xmlns="http://www.w3.org/2000/svg">
<g filter="url(#filter0_d_37_1295)">
<rect x="4" y="3" width="36" height="36" rx="18" fill="white" shape-rendering="crispEdges"/>
<path d="M19.3584 20.0584C17.375 19.9917 15.8 18.3667 15.8 16.3667C15.8 14.3251 17.45 12.6667 19.5 12.6667C21.5417 12.6667 23.2 14.3251 23.2 16.3667C23.1917 18.3667 21.6167 19.9917 19.6334 20.0584C19.55 20.0501 19.45 20.0501 19.3584 20.0584Z" stroke="#62B0FD" stroke-width="1.5" stroke-linecap="round" stroke-linejoin="round"/>
<path d="M25.675 14.3333C27.2916 14.3333 28.5916 15.6416 28.5916 17.2499C28.5916 18.8249 27.3417 20.1083 25.7833 20.1666C25.7167 20.1583 25.6417 20.1583 25.5667 20.1666" stroke="#62B0FD" stroke-width="1.5" stroke-linecap="round" stroke-linejoin="round"/>
<path d="M15.4666 28.0249C17.7583 29.5583 21.5166 29.5583 23.8083 28.0249C25.8249 26.6749 25.8249 24.4749 23.8083 23.1333C21.5249 21.6083 17.7666 21.6083 15.4666 23.1333C13.4499 24.4833 13.4499 26.6833 15.4666 28.0249Z" stroke="#62B0FD" stroke-width="1.5" stroke-linecap="round" stroke-linejoin="round"/>
<path d="M27.2834 27.6667C27.8834 27.5417 28.4501 27.3001 28.9168 26.9417C30.2168 25.9667 30.2168 24.3584 28.9168 23.3834C28.4584 23.0334 27.9001 22.8001 27.3084 22.6667" stroke="#62B0FD" stroke-width="1.5" stroke-linecap="round" stroke-linejoin="round"/>
</g>
<defs>
<filter id="filter0_d_37_1295" x="0" y="0" width="44" height="44" filterUnits="userSpaceOnUse" color-interpolation-filters="sRGB">
<feFlood flood-opacity="0" result="BackgroundImageFix"/>
<feColorMatrix in="SourceAlpha" type="matrix" values="0 0 0 0 0 0 0 0 0 0 0 0 0 0 0 0 0 0 127 0" result="hardAlpha"/>
<feOffset dy="1"/>
<feGaussianBlur stdDeviation="2"/>
<feComposite in2="hardAlpha" operator="out"/>
<feColorMatrix type="matrix" values="0 0 0 0 0 0 0 0 0 0 0 0 0 0 0 0 0 0 0.1 0"/>
<feBlend mode="normal" in2="BackgroundImageFix" result="effect1_dropShadow_37_1295"/>
<feBlend mode="normal" in="SourceGraphic" in2="effect1_dropShadow_37_1295" result="shape"/>
</filter>
</defs>
</svg>
