<svg width="44" height="44" viewBox="0 0 44 44" fill="none" xmlns="http://www.w3.org/2000/svg">
<g filter="url(#filter0_d_569_28598)">
<rect x="4" y="3" width="36" height="36" rx="18" fill="white" shape-rendering="crispEdges"/>
<path d="M17 19C19 19 20 18 20 16V14C20 12 19 11 17 11H15C13 11 12 12 12 14V16C12 18 13 19 15 19H17Z" stroke="#1A9DF5" stroke-width="1.5" stroke-linecap="round" stroke-linejoin="round"/>
<path d="M29 19C31 19 32 18 32 16V14C32 12 31 11 29 11H27C25 11 24 12 24 14V16C24 18 25 19 27 19H29Z" stroke="#1A9DF5" stroke-width="1.5" stroke-linecap="round" stroke-linejoin="round"/>
<path d="M29 31C31 31 32 30 32 28V26C32 24 31 23 29 23H27C25 23 24 24 24 26V28C24 30 25 31 27 31H29Z" stroke="#1A9DF5" stroke-width="1.5" stroke-linecap="round" stroke-linejoin="round"/>
<path d="M17 31C19 31 20 30 20 28V26C20 24 19 23 17 23H15C13 23 12 24 12 26V28C12 30 13 31 15 31H17Z" stroke="#1A9DF5" stroke-width="1.5" stroke-linecap="round" stroke-linejoin="round"/>
</g>
<defs>
<filter id="filter0_d_569_28598" x="0" y="0" width="44" height="44" filterUnits="userSpaceOnUse" color-interpolation-filters="sRGB">
<feFlood flood-opacity="0" result="BackgroundImageFix"/>
<feColorMatrix in="SourceAlpha" type="matrix" values="0 0 0 0 0 0 0 0 0 0 0 0 0 0 0 0 0 0 127 0" result="hardAlpha"/>
<feOffset dy="1"/>
<feGaussianBlur stdDeviation="2"/>
<feComposite in2="hardAlpha" operator="out"/>
<feColorMatrix type="matrix" values="0 0 0 0 0 0 0 0 0 0 0 0 0 0 0 0 0 0 0.1 0"/>
<feBlend mode="normal" in2="BackgroundImageFix" result="effect1_dropShadow_569_28598"/>
<feBlend mode="normal" in="SourceGraphic" in2="effect1_dropShadow_569_28598" result="shape"/>
</filter>
</defs>
</svg>
