<svg width="16" height="16" viewBox="0 0 16 16" fill="none" xmlns="http://www.w3.org/2000/svg">
<path d="M8.01333 13.688C6.45999 13.688 4.90666 13.4413 3.43333 12.948C2.87333 12.7547 2.44666 12.3613 2.25999 11.848C2.06666 11.3347 2.13333 10.768 2.43999 10.2613L3.20666 8.988C3.36666 8.72134 3.51333 8.188 3.51333 7.87467V5.948C3.51333 3.468 5.53333 1.448 8.01333 1.448C10.4933 1.448 12.5133 3.468 12.5133 5.948V7.87467C12.5133 8.18134 12.66 8.72134 12.82 8.99467L13.58 10.2613C13.8667 10.7413 13.92 11.3213 13.7267 11.848C13.6323 12.1057 13.4806 12.3385 13.2831 12.5291C13.0857 12.7196 12.8475 12.8629 12.5867 12.948C11.12 13.4413 9.56666 13.688 8.01333 13.688ZM8.01333 2.448C6.08666 2.448 4.51333 4.01467 4.51333 5.948V7.87467C4.51333 8.36134 4.31333 9.08134 4.06666 9.50134L3.29999 10.7747C3.15333 11.0213 3.11333 11.2813 3.19999 11.5013C3.27999 11.728 3.47999 11.9013 3.75333 11.9947C6.51893 12.928 9.51439 12.928 12.28 11.9947C12.52 11.9147 12.7067 11.7347 12.7933 11.4947C12.88 11.2547 12.86 10.9947 12.7267 10.7747L11.96 9.50134C11.7067 9.068 11.5133 8.35467 11.5133 7.868V5.948C11.5133 4.01467 9.94666 2.448 8.01333 2.448Z" fill="#5A6269"/>
<path d="M9.25334 2.62667C9.20667 2.62667 9.16 2.62 9.11334 2.60667C8.92 2.55333 8.73334 2.51333 8.55334 2.48667C7.98667 2.41333 7.44 2.45333 6.92667 2.60667C6.74 2.66667 6.54 2.60667 6.41334 2.46667C6.35022 2.39767 6.30796 2.31221 6.29144 2.22017C6.27492 2.12814 6.28482 2.0333 6.32 1.94667C6.45274 1.60403 6.68629 1.30971 6.98982 1.1026C7.29334 0.89549 7.65255 0.785328 8.02 0.786667C8.78 0.786667 9.44667 1.24 9.72 1.94667C9.78667 2.12667 9.75334 2.32667 9.62667 2.46667C9.52667 2.57333 9.38667 2.62667 9.25334 2.62667ZM8.01334 15.206C7.35334 15.206 6.71334 14.9393 6.24667 14.4727C5.78 14.006 5.51334 13.366 5.51334 12.706H6.51334C6.51334 13.0993 6.67334 13.486 6.95334 13.766C7.23334 14.046 7.62 14.206 8.01334 14.206C8.84 14.206 9.51334 13.5327 9.51334 12.706H10.5133C10.5133 14.086 9.39334 15.206 8.01334 15.206Z" fill="#5A6269"/>
</svg>
