<svg width="18" height="18" viewBox="0 0 18 18" fill="none" xmlns="http://www.w3.org/2000/svg">
<path d="M13.95 1.5752C14.775 1.5752 15.45 2.2502 15.45 3.0752V4.7252C15.45 5.3252 15.075 6.0752 14.7 6.4502L11.475 9.30019C11.025 9.67519 10.725 10.4252 10.725 11.0252V14.2502C10.725 14.7002 10.425 15.3002 10.05 15.5252L9.00002 16.2002C8.02502 16.8002 6.67502 16.1252 6.67502 14.9252V10.9502C6.67502 10.4252 6.37502 9.7502 6.07502 9.3752L3.22502 6.3752C2.85002 6.0002 2.55002 5.3252 2.55002 4.8752V3.1502C2.55002 2.2502 3.22502 1.5752 4.05002 1.5752H13.95Z" stroke="#4A4A4A" stroke-width="1.5" stroke-linecap="round" stroke-linejoin="round"/>
<path d="M8.1975 1.5752L4.5 7.5002" stroke="#4A4A4A" stroke-width="1.5" stroke-linecap="round" stroke-linejoin="round"/>
</svg>
