<svg width="18" height="18" viewBox="0 0 18 18" fill="none" xmlns="http://www.w3.org/2000/svg">
<path d="M9 1.5C4.8645 1.5 1.5 4.8645 1.5 9C1.5 13.1355 4.8645 16.5 9 16.5C13.1355 16.5 16.5 13.1355 16.5 9C16.5 4.8645 13.1355 1.5 9 1.5ZM3 9C3 8.32575 3.117 7.6785 3.32325 7.07325L6 9.75V11.25L8.25 13.5V14.9482C5.29575 14.577 3 12.054 3 9ZM13.7475 12.6547C13.2577 12.2602 12.5152 12 12 12V11.25C12 10.8522 11.842 10.4706 11.5607 10.1893C11.2794 9.90804 10.8978 9.75 10.5 9.75H7.5V7.5C7.89782 7.5 8.27936 7.34196 8.56066 7.06066C8.84196 6.77936 9 6.39782 9 6V5.25H9.75C10.1478 5.25 10.5294 5.09196 10.8107 4.81066C11.092 4.52936 11.25 4.14782 11.25 3.75V3.44175C13.446 4.3335 15 6.4875 15 9C14.9999 10.3235 14.5592 11.6094 13.7475 12.6547Z" fill="#09332B"/>
</svg>
