<svg width="213" height="213" viewBox="0 0 213 213" fill="none" xmlns="http://www.w3.org/2000/svg">
<g clip-path="url(#clip0_178_3576)">
<path fill-rule="evenodd" clip-rule="evenodd" d="M44.9109 98.2313H50.5342V71.216C50.5342 49.5516 68.2565 31.8293 89.9209 31.8293C111.573 31.8293 129.296 49.5516 129.296 71.216V98.2313H134.919C146.935 98.2313 156.773 108.069 156.773 120.073V188.405C156.773 200.421 146.935 210.247 134.919 210.247H44.9109C32.8947 210.247 23.0688 200.421 23.0688 188.405V120.073C23.0693 108.069 32.8951 98.2313 44.9109 98.2313ZM73.5482 98.2313H106.282V71.216C106.282 62.2542 98.8706 54.8433 89.9209 54.8433C80.9591 54.8433 73.5482 62.2542 73.5482 71.216V98.2313Z" fill="#23A8FE"/>
<path fill-rule="evenodd" clip-rule="evenodd" d="M156.772 127.413V182.888H105.074L81.3496 205.867V193.128V182.888V127.413H156.772Z" fill="#0083E0"/>
<path fill-rule="evenodd" clip-rule="evenodd" d="M178.109 75.9395C174.729 57.7214 165.782 41.0029 152.212 27.9064C135.405 11.6859 113.283 2.75281 89.9209 2.75281C40.4529 2.75322 0.208008 42.9928 0.208008 92.4545C0.208008 94.9881 2.26895 97.0494 4.80248 97.0494C7.33602 97.0494 9.39696 94.9881 9.39696 92.4545C9.39696 48.0602 45.52 11.943 89.9205 11.943C128.809 11.943 161.178 39.1404 168.755 75.9399H156.335L174.447 97.0835L192.548 75.9399H178.109V75.9395Z" fill="#FFB74D"/>
<path fill-rule="evenodd" clip-rule="evenodd" d="M86.7719 31.96C87.8136 31.8773 88.8553 31.8298 89.9208 31.8298C111.573 31.8298 129.295 49.5521 129.295 71.2165V98.2201C128.869 98.1964 128.431 98.1847 127.993 98.1847H122.37V71.1575C122.37 50.7714 106.672 33.8779 86.7719 31.96ZM129.544 98.2313H134.919C146.935 98.2313 156.772 108.069 156.772 120.073V188.405C156.772 200.421 146.934 210.247 134.919 210.247H134.031C143.194 207.477 149.847 198.349 149.847 188.346V120.026C149.847 108.531 140.85 99.0367 129.544 98.2313ZM86.5826 55.1987C79.1955 56.7612 73.5485 63.4025 73.5485 71.2161V98.1839H66.623V71.1566C66.623 62.2069 74.034 54.796 82.9958 54.796C84.2267 54.7964 85.4224 54.9383 86.5826 55.1987Z" fill="#0083E0"/>
<path fill-rule="evenodd" clip-rule="evenodd" d="M200.433 118.748H66.2085C59.4133 118.748 53.8491 124.312 53.8491 131.107V161.851C53.8491 168.659 59.4133 174.211 66.2085 174.211H81.3498V197.201L105.074 174.211H200.433C207.228 174.211 212.792 168.659 212.792 161.851V131.107C212.792 124.312 207.228 118.748 200.433 118.748Z" fill="#FFB74D"/>
<path d="M108.116 138.44C107.308 137.042 105.52 136.563 104.121 137.37L97.1186 141.414V133.332C97.1186 131.717 95.8094 130.408 94.1944 130.408C92.5794 130.408 91.2702 131.717 91.2702 133.332V141.414L84.2683 137.37C82.8696 136.564 81.0812 137.042 80.2737 138.44C79.4662 139.839 79.945 141.627 81.3437 142.435L88.3469 146.479L81.3437 150.523C79.945 151.331 79.4662 153.119 80.2737 154.518C80.8153 155.456 81.7984 155.98 82.8085 155.98C83.3048 155.98 83.8073 155.854 84.2683 155.588L91.2702 151.545V159.626C91.2702 161.241 92.5794 162.551 94.1944 162.551C95.8094 162.551 97.1186 161.241 97.1186 159.626V151.545L104.121 155.588C104.581 155.854 105.084 155.98 105.581 155.98C106.591 155.98 107.574 155.456 108.116 154.518C108.923 153.119 108.444 151.331 107.046 150.523L100.042 146.479L107.046 142.435C108.444 141.627 108.923 139.839 108.116 138.44Z" fill="#EAF6FF"/>
<path d="M147.242 138.44C146.434 137.042 144.646 136.563 143.247 137.37L136.245 141.414V133.333C136.245 131.718 134.936 130.408 133.321 130.408C131.706 130.408 130.396 131.718 130.396 133.333V141.414L123.394 137.371C121.996 136.564 120.207 137.042 119.4 138.441C118.592 139.84 119.071 141.628 120.47 142.435L127.473 146.48L120.47 150.524C119.071 151.331 118.592 153.12 119.4 154.518C119.942 155.456 120.925 155.981 121.935 155.981C122.431 155.981 122.933 155.854 123.394 155.589L130.396 151.545V159.627C130.396 161.242 131.706 162.551 133.321 162.551C134.936 162.551 136.245 161.242 136.245 159.627V151.545L143.247 155.589C143.708 155.855 144.211 155.981 144.707 155.981C145.717 155.981 146.7 155.457 147.242 154.519C148.049 153.12 147.57 151.332 146.172 150.524L139.169 146.48L146.172 142.436C147.57 141.628 148.049 139.839 147.242 138.44Z" fill="#EAF6FF"/>
<path d="M185.286 150.523L178.286 146.479L185.286 142.434C186.684 141.626 187.163 139.838 186.355 138.439C185.547 137.041 183.759 136.561 182.361 137.37L175.371 141.409V133.332C175.371 131.717 174.062 130.408 172.447 130.408C170.832 130.408 169.522 131.717 169.522 133.332V141.416L162.521 137.37C161.123 136.562 159.333 137.041 158.526 138.44C157.718 139.838 158.197 141.627 159.595 142.435L166.595 146.479L159.595 150.524C158.197 151.332 157.718 153.12 158.526 154.519C159.068 155.456 160.05 155.98 161.06 155.98C161.557 155.98 162.06 155.854 162.521 155.588L169.522 151.542V159.626C169.522 161.241 170.832 162.551 172.447 162.551C174.062 162.551 175.371 161.241 175.371 159.626V151.55L182.361 155.588C182.821 155.854 183.324 155.981 183.821 155.981C184.831 155.981 185.814 155.457 186.355 154.519C187.163 153.12 186.685 151.332 185.286 150.523Z" fill="#EAF6FF"/>
<path fill-rule="evenodd" clip-rule="evenodd" d="M58.3834 126.573H149.847H156.773H192.596C199.391 126.573 204.955 132.137 204.955 138.932V169.688C204.955 171.05 204.73 172.352 204.328 173.583C209.229 171.937 212.793 167.297 212.793 161.851V131.106C212.793 124.311 207.228 118.747 200.433 118.747H156.725H149.8H66.2086C60.7746 118.747 56.1223 122.299 54.4766 127.212C55.708 126.797 57.0222 126.573 58.3834 126.573Z" fill="#E09109"/>
</g>
<defs>
<clipPath id="clip0_178_3576">
<rect width="213" height="213" fill="white"/>
</clipPath>
</defs>
</svg>
