<svg width="24" height="24" viewBox="0 0 24 24" fill="none" xmlns="http://www.w3.org/2000/svg">
<path d="M21 12C21.552 12 22.005 11.551 21.95 11.002C21.7195 8.70621 20.7021 6.56074 19.0703 4.92936C17.4386 3.29798 15.2929 2.28108 12.997 2.05104C12.447 1.99604 11.999 2.44904 11.999 3.00104V11.001C11.999 11.2663 12.1044 11.5206 12.2919 11.7081C12.4795 11.8957 12.7338 12.001 12.999 12.001L21 12Z" stroke="#5A6269" stroke-width="2" stroke-linecap="round" stroke-linejoin="round"/>
<path d="M21.2104 15.89C20.5742 17.3944 19.5792 18.7202 18.3123 19.7513C17.0454 20.7823 15.5452 21.4874 13.9428 21.8047C12.3405 22.1221 10.6848 22.0421 9.12055 21.5718C7.55627 21.1014 6.13103 20.255 4.96942 19.1066C3.80782 17.9582 2.94522 16.5427 2.45704 14.9839C1.96886 13.4251 1.86996 11.7704 2.169 10.1646C2.46804 8.55874 3.1559 7.05058 4.17245 5.77199C5.189 4.49339 6.50329 3.48327 8.0004 2.82996" stroke="#5A6269" stroke-width="2" stroke-linecap="round" stroke-linejoin="round"/>
</svg>
